<?xml version="1.0" encoding="UTF-8"?>
<svg xmlns="http://www.w3.org/2000/svg" version="1.1" viewBox="0 0 587.7 571.1">
  <!-- Generator: Adobe Illustrator 29.3.1, SVG Export Plug-In . SVG Version: 2.1.0 Build 151)  -->
  <defs>
    <style>
      .st0 {
        fill: #f1f1f1;
      }

      .st1 {
        fill: #eaf0f6;
      }

      .st2 {
        fill: #f3f6fa;
      }

      .st3 {
        fill: #fdfdfe;
      }

      .st4 {
        fill: #d9e3ef;
      }

      .st5 {
        fill: #eff3f8;
      }

      .st6 {
        fill: #f2f6fa;
      }

      .st7 {
        fill: #dde6f1;
      }

      .st8 {
        fill: #f6f6f6;
      }

      .st9 {
        fill: #f4f4f4;
      }

      .st10 {
        fill: #ecf1f7;
      }

      .st11 {
        fill: #dce5f0;
      }

      .st12 {
        fill: #dfe7f2;
      }

      .st13 {
        fill: #e1e9f2;
      }

      .st14 {
        fill: #f8fafc;
      }

      .st15 {
        fill: #e8eef5;
      }

      .st16 {
        fill: #e9eff6;
      }

      .st17 {
        fill: #fefeff;
      }

      .st18 {
        isolation: isolate;
      }

      .st19 {
        fill: #e2eaf3;
      }

      .st20 {
        fill: #dbe5f0;
      }

      .st21 {
        mix-blend-mode: multiply;
      }

      .st22 {
        fill: #ebf0f7;
      }

      .st23 {
        fill: #f0f4f9;
      }

      .st24 {
        fill: #fcfdfe;
      }

      .st25 {
        fill: #fff;
      }

      .st26 {
        fill: #e0e8f2;
      }

      .st27 {
        fill: #edf2f7;
      }

      .st28 {
        fill: #f9f9f9;
      }

      .st29 {
        fill: #f0f0f0;
      }

      .st30 {
        fill: #818f99;
      }

      .st31 {
        fill: #f9fbfc;
      }

      .st32 {
        fill: #fafafa;
      }

      .st33 {
        mix-blend-mode: lighten;
      }

      .st34 {
        fill: #e4ebf4;
      }

      .st35 {
        fill: #f1f5f9;
      }

      .st36 {
        fill: #f8f8f8;
      }

      .st37 {
        fill: #e3eaf3;
      }

      .st38 {
        fill: #e6ecf4;
      }

      .st39 {
        fill: #f7f7f7;
      }

      .st40 {
        fill: #fefefe;
      }

      .st41 {
        fill: #e6edf5;
      }

      .st42 {
        fill: #dae4f0;
      }

      .st43 {
        fill: #f2f2f2;
      }

      .st44 {
        fill: #f5f5f5;
      }

      .st45 {
        fill: #f3f3f3;
      }

      .st46 {
        fill: #fbfcfd;
      }

      .st47 {
        fill: #fbfbfb;
      }

      .st48 {
        fill: #fcfcfc;
      }

      .st49 {
        fill: #e7edf5;
      }

      .st50 {
        fill: #fafbfd;
      }

      .st51 {
        fill: #e5ecf4;
      }

      .st52 {
        fill: #dae4ef;
      }

      .st53 {
        fill: #f4f7fa;
      }

      .st54 {
        fill: #f6f8fb;
      }

      .st55 {
        fill: #f2f5f9;
      }

      .st56 {
        fill: #dee7f1;
      }

      .st57 {
        fill: #e3ebf3;
      }

      .st58 {
        fill: #eef2f8;
      }

      .st59 {
        fill: #f5f8fb;
      }

      .st60 {
        fill: #f5f7fb;
      }

      .st61 {
        fill: #f7f9fc;
      }

      .st62 {
        fill: #fdfdfd;
      }
    </style>
  </defs>
  <g class="st18">
    <g id="Layer_1">
      <g>
        <g>
          <g class="st33">
            <rect class="st29" width="480" height="480" rx="128.6" ry="128.6"/>
            <rect class="st29" x="1.1" y=".9" width="480" height="480" rx="128.6" ry="128.6"/>
            <rect class="st0" x="2.1" y="1.8" width="480" height="480" rx="128.6" ry="128.6"/>
            <rect class="st0" x="3.2" y="2.7" width="480" height="480" rx="128.6" ry="128.6"/>
            <rect class="st0" x="4.2" y="3.6" width="480" height="480" rx="128.6" ry="128.6"/>
            <rect class="st0" x="5.3" y="4.5" width="480" height="480" rx="128.6" ry="128.6"/>
            <rect class="st43" x="6.3" y="5.4" width="480" height="480" rx="128.6" ry="128.6"/>
            <rect class="st43" x="7.4" y="6.3" width="480" height="480" rx="128.6" ry="128.6"/>
            <rect class="st43" x="8.4" y="7.1" width="480" height="480" rx="128.6" ry="128.6"/>
            <rect class="st45" x="9.5" y="8" width="480" height="480" rx="128.6" ry="128.6"/>
            <rect class="st45" x="10.6" y="8.9" width="480" height="480" rx="128.6" ry="128.6"/>
            <rect class="st45" x="11.6" y="9.8" width="480" height="480" rx="128.6" ry="128.6"/>
            <rect class="st9" x="12.7" y="10.7" width="480" height="480" rx="128.6" ry="128.6"/>
            <rect class="st9" x="13.7" y="11.6" width="480" height="480" rx="128.6" ry="128.6"/>
            <rect class="st9" x="14.8" y="12.5" width="480" height="480" rx="128.6" ry="128.6"/>
            <rect class="st9" x="15.8" y="13.4" width="480" height="480" rx="128.6" ry="128.6"/>
            <rect class="st44" x="16.9" y="14.3" width="480" height="480" rx="128.6" ry="128.6"/>
            <rect class="st44" x="17.9" y="15.2" width="480" height="480" rx="128.6" ry="128.6"/>
            <rect class="st44" x="19" y="16.1" width="480" height="480" rx="128.6" ry="128.6"/>
            <rect class="st8" x="20.1" y="17" width="480" height="480" rx="128.6" ry="128.6"/>
            <rect class="st8" x="21.1" y="17.9" width="480" height="480" rx="128.6" ry="128.6"/>
            <rect class="st8" x="22.2" y="18.8" width="480" height="480" rx="128.6" ry="128.6"/>
            <rect class="st8" x="23.2" y="19.7" width="480" height="480" rx="128.6" ry="128.6"/>
            <rect class="st39" x="24.3" y="20.5" width="480" height="480" rx="128.6" ry="128.6"/>
            <rect class="st39" x="25.3" y="21.4" width="480" height="480" rx="128.6" ry="128.6"/>
            <rect class="st39" x="26.4" y="22.3" width="480" height="480" rx="128.6" ry="128.6"/>
            <rect class="st36" x="27.4" y="23.2" width="480" height="480" rx="128.6" ry="128.6"/>
            <rect class="st36" x="28.5" y="24.1" width="480" height="480" rx="128.6" ry="128.6"/>
            <rect class="st36" x="29.6" y="25" width="480" height="480" rx="128.6" ry="128.6"/>
            <rect class="st28" x="30.6" y="25.9" width="480" height="480" rx="128.6" ry="128.6"/>
            <rect class="st28" x="31.7" y="26.8" width="480" height="480" rx="128.6" ry="128.6"/>
            <rect class="st28" x="32.7" y="27.7" width="480" height="480" rx="128.6" ry="128.6"/>
            <rect class="st28" x="33.8" y="28.6" width="480" height="480" rx="128.6" ry="128.6"/>
            <rect class="st32" x="34.8" y="29.5" width="480" height="480" rx="128.6" ry="128.6"/>
            <rect class="st32" x="35.9" y="30.4" width="480" height="480" rx="128.6" ry="128.6"/>
            <rect class="st32" x="37" y="31.3" width="480" height="480" rx="128.6" ry="128.6"/>
            <rect class="st47" x="38" y="32.2" width="480" height="480" rx="128.6" ry="128.6"/>
            <rect class="st47" x="39.1" y="33" width="480" height="480" rx="128.6" ry="128.6"/>
            <rect class="st47" x="40.1" y="33.9" width="480" height="480" rx="128.6" ry="128.6"/>
            <rect class="st47" x="41.2" y="34.8" width="480" height="480" rx="128.6" ry="128.6"/>
            <rect class="st48" x="42.2" y="35.7" width="480" height="480" rx="128.6" ry="128.6"/>
            <rect class="st48" x="43.3" y="36.6" width="480" height="480" rx="128.6" ry="128.6"/>
            <rect class="st48" x="44.3" y="37.5" width="480" height="480" rx="128.6" ry="128.6"/>
            <rect class="st62" x="45.4" y="38.4" width="480" height="480" rx="128.6" ry="128.6"/>
            <rect class="st62" x="46.5" y="39.3" width="480" height="480" rx="128.6" ry="128.6"/>
            <rect class="st62" x="47.5" y="40.2" width="480" height="480" rx="128.6" ry="128.6"/>
            <rect class="st40" x="48.6" y="41.1" width="480" height="480" rx="128.6" ry="128.6"/>
            <rect class="st40" x="49.6" y="42" width="480" height="480" rx="128.6" ry="128.6"/>
            <rect class="st40" x="50.7" y="42.9" width="480" height="480" rx="128.6" ry="128.6"/>
            <rect class="st40" x="51.7" y="43.8" width="480" height="480" rx="128.6" ry="128.6"/>
            <rect class="st25" x="52.8" y="44.7" width="480" height="480" rx="128.6" ry="128.6"/>
            <rect class="st25" x="53.8" y="45.6" width="480" height="480" rx="128.6" ry="128.6"/>
          </g>
          <g class="st21">
            <rect class="st25" x="107.7" y="91.1" width="480" height="480" rx="128.6" ry="128.6"/>
            <rect class="st17" x="106.6" y="90.2" width="480" height="480" rx="128.6" ry="128.6"/>
            <rect class="st40" x="105.6" y="89.3" width="480" height="480" rx="128.6" ry="128.6"/>
            <rect class="st3" x="104.5" y="88.4" width="480" height="480" rx="128.6" ry="128.6"/>
            <rect class="st24" x="103.5" y="87.5" width="480" height="480" rx="128.6" ry="128.6"/>
            <rect class="st46" x="102.4" y="86.6" width="480" height="480" rx="128.6" ry="128.6"/>
            <rect class="st46" x="101.4" y="85.7" width="480" height="480" rx="128.6" ry="128.6"/>
            <rect class="st50" x="100.3" y="84.9" width="480" height="480" rx="128.6" ry="128.6"/>
            <rect class="st31" x="99.2" y="84" width="480" height="480" rx="128.6" ry="128.6"/>
            <rect class="st14" x="98.2" y="83.1" width="480" height="480" rx="128.6" ry="128.6"/>
            <rect class="st14" x="97.1" y="82.2" width="480" height="480" rx="128.6" ry="128.6"/>
            <rect class="st61" x="96.1" y="81.3" width="480" height="480" rx="128.6" ry="128.6"/>
            <rect class="st54" x="95" y="80.4" width="480" height="480" rx="128.6" ry="128.6"/>
            <rect class="st59" x="94" y="79.5" width="480" height="480" rx="128.6" ry="128.6"/>
            <rect class="st60" x="92.9" y="78.6" width="480" height="480" rx="128.6" ry="128.6"/>
            <rect class="st53" x="91.9" y="77.7" width="480" height="480" rx="128.6" ry="128.6"/>
            <rect class="st2" x="90.8" y="76.8" width="480" height="480" rx="128.6" ry="128.6"/>
            <rect class="st6" x="89.7" y="75.9" width="480" height="480" rx="128.6" ry="128.6"/>
            <rect class="st55" x="88.7" y="75" width="480" height="480" rx="128.6" ry="128.6"/>
            <rect class="st35" x="87.6" y="74.1" width="480" height="480" rx="128.6" ry="128.6"/>
            <rect class="st23" x="86.6" y="73.2" width="480" height="480" rx="128.6" ry="128.6"/>
            <rect class="st5" x="85.5" y="72.4" width="480" height="480" rx="128.6" ry="128.6"/>
            <rect class="st5" x="84.5" y="71.5" width="480" height="480" rx="128.6" ry="128.6"/>
            <rect class="st58" x="83.4" y="70.6" width="480" height="480" rx="128.6" ry="128.6"/>
            <rect class="st27" x="82.3" y="69.7" width="480" height="480" rx="128.6" ry="128.6"/>
            <rect class="st10" x="81.3" y="68.8" width="480" height="480" rx="128.6" ry="128.6"/>
            <rect class="st10" x="80.2" y="67.9" width="480" height="480" rx="128.6" ry="128.6"/>
            <rect class="st22" x="79.2" y="67" width="480" height="480" rx="128.6" ry="128.6"/>
            <rect class="st1" x="78.1" y="66.1" width="480" height="480" rx="128.6" ry="128.6"/>
            <rect class="st16" x="77.1" y="65.2" width="480" height="480" rx="128.6" ry="128.6"/>
            <rect class="st16" x="76" y="64.3" width="480" height="480" rx="128.6" ry="128.6"/>
            <rect class="st15" x="75" y="63.4" width="480" height="480" rx="128.6" ry="128.6"/>
            <rect class="st49" x="73.9" y="62.5" width="480" height="480" rx="128.6" ry="128.6"/>
            <rect class="st41" x="72.8" y="61.6" width="480" height="480" rx="128.6" ry="128.6"/>
            <rect class="st38" x="71.8" y="60.7" width="480" height="480" rx="128.6" ry="128.6"/>
            <rect class="st51" x="70.7" y="59.8" width="480" height="480" rx="128.6" ry="128.6"/>
            <rect class="st34" x="69.7" y="59" width="480" height="480" rx="128.6" ry="128.6"/>
            <rect class="st57" x="68.6" y="58.1" width="480" height="480" rx="128.6" ry="128.6"/>
            <rect class="st37" x="67.6" y="57.2" width="480" height="480" rx="128.6" ry="128.6"/>
            <rect class="st19" x="66.5" y="56.3" width="480" height="480" rx="128.6" ry="128.6"/>
            <rect class="st13" x="65.5" y="55.4" width="480" height="480" rx="128.6" ry="128.6"/>
            <rect class="st26" x="64.4" y="54.5" width="480" height="480" rx="128.6" ry="128.6"/>
            <rect class="st26" x="63.3" y="53.6" width="480" height="480" rx="128.6" ry="128.6"/>
            <rect class="st12" x="62.3" y="52.7" width="480" height="480" rx="128.6" ry="128.6"/>
            <rect class="st56" x="61.2" y="51.8" width="480" height="480" rx="128.6" ry="128.6"/>
            <rect class="st7" x="60.2" y="50.9" width="480" height="480" rx="128.6" ry="128.6"/>
            <rect class="st7" x="59.1" y="50" width="480" height="480" rx="128.6" ry="128.6"/>
            <rect class="st11" x="58.1" y="49.1" width="480" height="480" rx="128.6" ry="128.6"/>
            <rect class="st20" x="57" y="48.2" width="480" height="480" rx="128.6" ry="128.6"/>
            <rect class="st42" x="56" y="47.3" width="480" height="480" rx="128.6" ry="128.6"/>
            <rect class="st52" x="54.9" y="46.4" width="480" height="480" rx="128.6" ry="128.6"/>
            <rect class="st4" x="53.8" y="45.6" width="480" height="480" rx="128.6" ry="128.6"/>
          </g>
          <rect class="st29" x="53.8" y="45.6" width="480" height="480" rx="128.6" ry="128.6"/>
        </g>
        <g class="st18">
          <g id="today">
            <g>
              <path class="st30" d="M199.2,410.8v30.3h17.6v6.9h-25.6v-37.2h8Z"/>
              <path class="st30" d="M219.6,421.8c.8-2.4,2-4.5,3.5-6.2,1.5-1.8,3.4-3.2,5.6-4.2,2.2-1,4.7-1.5,7.5-1.5s5.3.5,7.5,1.5,4.1,2.4,5.6,4.2c1.5,1.8,2.7,3.8,3.5,6.2.8,2.4,1.2,5,1.2,7.7s-.4,5.2-1.2,7.6c-.8,2.3-2,4.4-3.5,6.1s-3.4,3.1-5.6,4.1c-2.2,1-4.7,1.5-7.5,1.5s-5.3-.5-7.5-1.5-4.1-2.4-5.6-4.1-2.7-3.8-3.5-6.1c-.8-2.3-1.2-4.9-1.2-7.6s.4-5.4,1.2-7.7ZM226.9,434.1c.4,1.5.9,2.8,1.7,4s1.8,2.1,3,2.8c1.2.7,2.8,1.1,4.6,1.1s3.3-.4,4.6-1.1c1.2-.7,2.3-1.7,3-2.8.8-1.2,1.3-2.5,1.7-4s.5-3,.5-4.6-.2-3.2-.5-4.7c-.4-1.5-.9-2.9-1.7-4.1s-1.8-2.2-3-2.9c-1.3-.7-2.8-1.1-4.6-1.1s-3.3.4-4.6,1.1c-1.2.7-2.3,1.7-3,2.9-.8,1.2-1.3,2.6-1.7,4.1s-.5,3.1-.5,4.7.2,3.1.5,4.6Z"/>
              <path class="st30" d="M254.2,410.8h8.9l8.5,14.7,8.4-14.7h8.9l-13.4,22.9v14.3h-8v-14.5l-13.3-22.7h0Z"/>
              <path class="st30" d="M305,410.8l13.5,37.2h-8.3l-2.7-8.3h-13.5l-2.8,8.3h-8l13.7-37.2h8.2-.1ZM305.4,433.6l-4.6-13.6h-.1l-4.7,13.6h9.4Z"/>
              <path class="st30" d="M328.3,410.8v30.3h17.6v6.9h-25.6v-37.2h8Z"/>
              <path class="st30" d="M341.7,417.7v-6.9h29.6v6.9h-10.8v30.3h-8v-30.3h-10.8Z"/>
              <path class="st30" d="M370.3,410.8h8.9l8.5,14.7,8.4-14.7h8.9l-13.4,22.9v14.3h-8v-14.5l-13.3-22.7h0Z"/>
            </g>
          </g>
        </g>
      </g>
    </g>
  </g>
</svg>