<?xml version="1.0" encoding="UTF-8"?>
<svg id="Layer_3" xmlns="http://www.w3.org/2000/svg" version="1.1" viewBox="0 0 591.1 578">
  <!-- Generator: Adobe Illustrator 29.3.1, SVG Export Plug-In . SVG Version: 2.1.0 Build 151)  -->
  <defs>
    <style>
      .st0 {
        fill: #eaf0f6;
      }

      .st1 {
        fill: #d9e3ef;
      }

      .st2 {
        fill: #eff3f8;
      }

      .st3 {
        fill: #dde6f1;
      }

      .st4 {
        fill: #f6f6f6;
      }

      .st5 {
        fill: #f4f4f4;
      }

      .st6 {
        fill: #ecf1f7;
      }

      .st7 {
        fill: #dce5f0;
      }

      .st8 {
        fill: #dfe7f2;
      }

      .st9 {
        fill: #e1e9f2;
      }

      .st10 {
        fill: #e8eef5;
      }

      .st11 {
        fill: #e9eff6;
      }

      .st12 {
        fill: #e2eaf3;
      }

      .st13 {
        fill: #dbe5f0;
      }

      .st14 {
        fill: #ebf0f7;
      }

      .st15 {
        fill: #f0f4f9;
      }

      .st16 {
        fill: #fff;
      }

      .st17 {
        fill: #e0e8f2;
      }

      .st18 {
        fill: #edf2f7;
      }

      .st19 {
        fill: #f9f9f9;
      }

      .st20 {
        fill: #f0f0f0;
      }

      .st21 {
        fill: #818f99;
      }

      .st22 {
        fill: #fafafa;
      }

      .st23 {
        fill: #e4ebf4;
      }

      .st24 {
        fill: #f8f8f8;
      }

      .st25 {
        fill: #e3eaf3;
      }

      .st26 {
        fill: #e6ecf4;
      }

      .st27 {
        fill: #f7f7f7;
      }

      .st28 {
        fill: #fefefe;
      }

      .st29 {
        fill: #e6edf5;
      }

      .st30 {
        fill: #dae4f0;
      }

      .st31 {
        fill: #f2f2f2;
      }

      .st32 {
        fill: #f5f5f5;
      }

      .st33 {
        fill: #f3f3f3;
      }

      .st34 {
        fill: #fbfbfb;
      }

      .st35 {
        fill: #fcfcfc;
      }

      .st36 {
        fill: #e7edf5;
      }

      .st37 {
        fill: #e5ecf4;
      }

      .st38 {
        fill: #dae4ef;
      }

      .st39 {
        fill: #dee7f1;
      }

      .st40 {
        fill: #e3ebf3;
      }

      .st41 {
        fill: #eef2f8;
      }

      .st42 {
        fill: #fdfdfd;
      }
    </style>
  </defs>
  <path class="st31" d="M370.7,0h-235.1C60.7,0,0,60.7,0,135.7v235.1c0,41.3,18.4,78.3,47.5,103.1.4.3.7.6,1.1.9C19.6,449.9,1.1,413,1.1,371.7v-235.1C1.1,61.7,61.8.9,136.8.9h235.1c33.1,0,63.5,11.9,87,31.6-.4-.3-.7-.6-1.1-.9C434.2,11.9,403.9,0,370.7,0"/>
  <path class="st31" d="M371.9.9h-235.1C61.8.9,1.1,61.7,1.1,136.6v235.1c0,41.3,18.4,78.3,47.5,103.1.4.3.7.6,1.1.9-29.1-24.9-47.5-61.9-47.5-103.1v-235.1C2.2,62.6,63,1.9,137.9,1.9h235.1c33.1,0,63.5,11.9,87,31.6-.4-.3-.7-.6-1.1-.9C435.3,12.8,405,.9,371.9.9"/>
  <path class="st31" d="M373,1.9h-235.1C63,1.9,2.2,62.6,2.2,137.5v235.1c0,41.3,18.4,78.3,47.5,103.1.4.3.7.6,1.1.9-29.1-24.9-47.5-61.9-47.5-103.1v-235.1C3.3,63.6,64.1,2.8,139,2.8h235.1c33.1,0,63.5,11.9,87,31.6-.4-.3-.7-.6-1.1-.9-23.6-19.7-53.9-31.6-87-31.6"/>
  <path class="st33" d="M374.1,2.8h-235.1C64.1,2.8,3.3,63.6,3.3,138.5v235.1c0,41.3,18.4,78.3,47.5,103.1.4.3.7.6,1.1.9-29.1-24.9-47.5-61.9-47.5-103.1v-235.1C4.5,64.5,65.2,3.8,140.1,3.8h235.1c33.1,0,63.5,11.9,87,31.6-.4-.3-.7-.6-1.1-.9-23.6-19.7-53.9-31.6-87-31.6"/>
  <path class="st33" d="M375.2,3.8h-235.1C65.2,3.8,4.5,64.5,4.5,139.4v235.1c0,41.3,18.4,78.3,47.5,103.1.4.3.7.6,1.1.9-29.1-24.9-47.5-61.9-47.5-103.1v-235.1C5.6,65.4,66.3,4.7,141.2,4.7h235.1c33.1,0,63.5,11.9,87,31.6-.4-.3-.7-.6-1.1-.9-23.6-19.7-53.9-31.6-87-31.6"/>
  <path class="st33" d="M376.3,4.7h-235.1C66.3,4.7,5.6,65.4,5.6,140.4v235.1c0,41.3,18.4,78.3,47.5,103.1.4.3.7.6,1.1.9-29.1-24.9-47.5-61.9-47.5-103.1v-235.1C6.7,66.4,67.4,5.7,142.3,5.7h235.1c33.1,0,63.5,11.9,87,31.6-.4-.3-.7-.6-1.1-.9-23.6-19.7-53.9-31.6-87-31.6"/>
  <path class="st5" d="M377.4,5.7h-235.1C67.4,5.7,6.7,66.4,6.7,141.3v235.1c0,41.3,18.4,78.3,47.5,103.1.4.3.7.6,1.1.9-29.1-24.9-47.5-61.9-47.5-103.1v-235.1C7.8,67.3,68.5,6.6,143.5,6.6h235.1c33.1,0,63.5,11.9,87,31.6-.4-.3-.7-.6-1.1-.9-23.6-19.7-53.9-31.6-87-31.6"/>
  <path class="st5" d="M378.5,6.6h-235.1C68.5,6.6,7.8,67.3,7.8,142.3v235.1c0,41.3,18.4,78.3,47.5,103.1.4.3.7.6,1.1.9-29.1-24.9-47.5-61.9-47.5-103.1v-235.1C8.9,68.3,69.6,7.5,144.6,7.5h235.1c33.1,0,63.5,11.9,87,31.6-.4-.3-.7-.6-1.1-.9-23.6-19.7-53.9-31.6-87-31.6"/>
  <path class="st5" d="M379.7,7.5h-235.1C69.6,7.5,8.9,68.3,8.9,143.2v235.1c0,41.3,18.4,78.3,47.5,103.1.4.3.7.6,1.1.9-29.1-24.9-47.5-61.9-47.5-103.1v-235.1C10,69.2,70.8,8.5,145.7,8.5h235.1c33.1,0,63.5,11.9,87,31.6-.4-.3-.7-.6-1.1-.9-23.6-19.7-53.9-31.6-87-31.6"/>
  <path class="st5" d="M380.8,8.5h-235.1C70.8,8.5,10,69.2,10,144.1v235.1c0,41.3,18.4,78.3,47.5,103.1.4.3.7.6,1.1.9-29.1-24.9-47.5-61.9-47.5-103.1v-235.1C11.1,70.2,71.9,9.4,146.8,9.4h235.1c33.1,0,63.5,11.9,87,31.6-.4-.3-.7-.6-1.1-.9-23.6-19.7-53.9-31.6-87-31.6"/>
  <path class="st32" d="M381.9,9.4h-235.1C71.9,9.4,11.1,70.2,11.1,145.1v235.1c0,41.3,18.4,78.3,47.5,103.1.4.3.7.6,1.1.9-29.1-24.9-47.5-61.9-47.5-103.1v-235.1C12.3,71.1,73,10.4,147.9,10.4h235.1c33.1,0,63.5,11.9,87,31.6-.4-.3-.7-.6-1.1-.9-23.6-19.7-53.9-31.6-87-31.6"/>
  <path class="st32" d="M383,10.4h-235.1C73,10.4,12.3,71.1,12.3,146v235.1c0,41.3,18.4,78.3,47.5,103.1.4.3.7.6,1.1.9-29.1-24.9-47.5-61.9-47.5-103.1v-235.1C13.4,72,74.1,11.3,149,11.3h235.1c33.1,0,63.5,11.9,87,31.6-.4-.3-.7-.6-1.1-.9-23.6-19.7-53.9-31.6-87-31.6"/>
  <path class="st32" d="M384.1,11.3h-235.1C74.1,11.3,13.4,72,13.4,147v235.1c0,41.3,18.4,78.3,47.5,103.1.4.3.7.6,1.1.9-29.1-24.9-47.5-61.9-47.5-103.1v-235.1C14.5,73,75.2,12.3,150.1,12.3h235.1c33.1,0,63.5,11.9,87,31.6-.4-.3-.7-.6-1.1-.9-23.6-19.7-53.9-31.6-87-31.6"/>
  <path class="st4" d="M385.2,12.3h-235.1C75.2,12.3,14.5,73,14.5,147.9v235.1c0,41.3,18.4,78.3,47.5,103.1.4.3.7.6,1.1.9-29.1-24.9-47.5-61.9-47.5-103.1v-235.1C15.6,73.9,76.3,13.2,151.2,13.2h235.1c33.1,0,63.5,11.9,87,31.6-.4-.3-.7-.6-1.1-.9-23.6-19.7-53.9-31.6-87-31.6"/>
  <path class="st4" d="M386.3,13.2h-235.1C76.3,13.2,15.6,73.9,15.6,148.8v235.1c0,41.3,18.4,78.3,47.5,103.1.4.3.7.6,1.1.9-29.1-24.9-47.5-61.9-47.5-103.1v-235.1C16.7,74.9,77.4,14.1,152.4,14.1h235.1c33.1,0,63.5,11.9,87,31.6-.4-.3-.7-.6-1.1-.9-23.6-19.7-53.9-31.6-87-31.6"/>
  <path class="st4" d="M387.5,14.1h-235.1C77.4,14.1,16.7,74.9,16.7,149.8v235.1c0,41.3,18.4,78.3,47.5,103.1.4.3.7.6,1.1.9-29.1-24.9-47.5-61.9-47.5-103.1v-235.1C17.8,75.8,78.6,15.1,153.5,15.1h235.1c33.1,0,63.5,11.9,87,31.6-.4-.3-.7-.6-1.1-.9-23.6-19.7-53.9-31.6-87-31.6"/>
  <path class="st4" d="M388.6,15.1h-235.1C78.6,15.1,17.8,75.8,17.8,150.7v235.1c0,41.3,18.4,78.3,47.5,103.1.4.3.7.6,1.1.9-29.1-24.9-47.5-61.9-47.5-103.1v-235.1c0-74.9,60.7-135.7,135.7-135.7h235.1c33.1,0,63.5,11.9,87,31.6-.4-.3-.7-.6-1.1-.9-23.6-19.7-53.9-31.6-87-31.6"/>
  <path class="st27" d="M389.7,16h-235.1c-74.9,0-135.7,60.7-135.7,135.7v235.1c0,41.3,18.4,78.3,47.5,103.1.4.3.7.6,1.1.9-29.1-24.9-47.5-61.9-47.5-103.1v-235.1c0-74.9,60.7-135.7,135.7-135.7h235.1c33.1,0,63.5,11.9,87,31.6-.4-.3-.7-.6-1.1-.9-23.6-19.7-53.9-31.6-87-31.6"/>
  <path class="st27" d="M390.8,17h-235.1c-74.9,0-135.7,60.7-135.7,135.7v235.1c0,41.3,18.4,78.3,47.5,103.1.4.3.7.6,1.1.9-29.1-24.9-47.5-61.9-47.5-103.1v-235.1c0-74.9,60.7-135.7,135.7-135.7h235.1c33.1,0,63.5,11.9,87,31.6-.4-.3-.7-.6-1.1-.9-23.6-19.7-53.9-31.6-87-31.6"/>
  <path class="st27" d="M391.9,17.9h-235.1c-74.9,0-135.7,60.7-135.7,135.7v235.1c0,41.3,18.4,78.3,47.5,103.1.4.3.7.6,1.1.9-29.1-24.9-47.5-61.9-47.5-103.1v-235.1c0-74.9,60.7-135.7,135.7-135.7h235.1c33.1,0,63.5,11.9,87,31.6-.4-.3-.7-.6-1.1-.9-23.6-19.7-53.9-31.6-87-31.6"/>
  <path class="st24" d="M393,18.8h-235.1c-74.9,0-135.7,60.7-135.7,135.7v235.1c0,41.3,18.4,78.3,47.5,103.1.4.3.7.6,1.1.9-29.1-24.9-47.5-61.9-47.5-103.1v-235.1c0-74.9,60.7-135.7,135.7-135.7h235.1c33.1,0,63.5,11.9,87,31.6-.4-.3-.7-.6-1.1-.9-23.6-19.7-53.9-31.6-87-31.6"/>
  <path class="st24" d="M394.1,19.8h-235.1c-74.9,0-135.7,60.7-135.7,135.7v235.1c0,41.3,18.4,78.3,47.5,103.1.4.3.7.6,1.1.9-29.1-24.9-47.5-61.9-47.5-103.1v-235.1c0-74.9,60.7-135.7,135.7-135.7h235.1c33.1,0,63.5,11.9,87,31.6-.4-.3-.7-.6-1.1-.9-23.6-19.7-53.9-31.6-87-31.6"/>
  <path class="st24" d="M395.2,20.7h-235.1c-74.9,0-135.7,60.7-135.7,135.7v235.1c0,41.3,18.4,78.3,47.5,103.1.4.3.7.6,1.1.9-29.1-24.9-47.5-61.9-47.5-103.1v-235.1c0-74.9,60.7-135.7,135.7-135.7h235.1c33.1,0,63.5,11.9,87,31.6-.4-.3-.7-.6-1.1-.9-23.6-19.7-53.9-31.6-87-31.6"/>
  <path class="st19" d="M396.4,21.7h-235.1c-74.9,0-135.7,60.7-135.7,135.7v235.1c0,41.3,18.4,78.3,47.5,103.1.4.3.7.6,1.1.9-29.1-24.9-47.5-61.9-47.5-103.1v-235.1c0-74.9,60.7-135.7,135.7-135.7h235.1c33.1,0,63.5,11.9,87,31.6-.4-.3-.7-.6-1.1-.9-23.6-19.7-53.9-31.6-87-31.6"/>
  <path class="st19" d="M397.5,22.6h-235.1c-74.9,0-135.7,60.7-135.7,135.7v235.1c0,41.3,18.4,78.3,47.5,103.1.4.3.7.6,1.1.9-29.1-24.9-47.5-61.9-47.5-103.1v-235.1c0-74.9,60.7-135.7,135.7-135.7h235.1c33.1,0,63.5,11.9,87,31.6-.4-.3-.7-.6-1.1-.9-23.6-19.7-53.9-31.6-87-31.6"/>
  <path class="st19" d="M398.6,23.6h-235.1c-74.9,0-135.7,60.7-135.7,135.7v235.1c0,41.3,18.4,78.3,47.5,103.1.4.3.7.6,1.1.9-29.1-24.9-47.5-61.9-47.5-103.1v-235.1c0-74.9,60.7-135.7,135.7-135.7h235.1c33.1,0,63.5,11.9,87,31.6-.4-.3-.7-.6-1.1-.9-23.6-19.7-53.9-31.6-87-31.6"/>
  <path class="st19" d="M399.7,24.5h-235.1c-74.9,0-135.7,60.7-135.7,135.7v235.1c0,41.3,18.4,78.3,47.5,103.1.4.3.7.6,1.1.9-29.1-24.9-47.5-61.9-47.5-103.1v-235.1c0-74.9,60.7-135.7,135.7-135.7h235.1c33.1,0,63.5,11.9,87,31.6-.4-.3-.7-.6-1.1-.9-23.6-19.7-53.9-31.6-87-31.6"/>
  <path class="st22" d="M400.8,25.4h-235.1c-74.9,0-135.7,60.7-135.7,135.7v235.1c0,41.3,18.4,78.3,47.5,103.1.4.3.7.6,1.1,1-29.1-24.9-47.5-61.9-47.5-103.1v-235.1c0-74.9,60.7-135.7,135.7-135.7h235.1c33.1,0,63.5,11.9,87,31.6-.4-.3-.7-.6-1.1-.9-23.6-19.7-53.9-31.6-87-31.6"/>
  <path class="st22" d="M401.9,26.4h-235.1c-74.9,0-135.7,60.7-135.7,135.7v235.1c0,41.3,18.4,78.3,47.5,103.1.4.3.7.6,1.1.9-29.1-24.9-47.5-61.9-47.5-103.1v-235.1c0-74.9,60.7-135.7,135.7-135.7h235.1c33.1,0,63.5,11.9,87,31.6-.4-.3-.7-.6-1.1-.9-23.6-19.7-53.9-31.6-87-31.6"/>
  <path class="st22" d="M403,27.3h-235.1c-74.9,0-135.7,60.7-135.7,135.7v235.1c0,41.3,18.4,78.3,47.5,103.1.4.3.7.6,1.1.9-29.1-24.9-47.5-61.9-47.5-103.1v-235.1c0-74.9,60.7-135.7,135.7-135.7h235.1c33.1,0,63.5,11.9,87,31.6-.4-.3-.7-.6-1.1-.9-23.6-19.7-53.9-31.6-87-31.6"/>
  <path class="st34" d="M404.2,28.3h-235.1c-74.9,0-135.7,60.7-135.7,135.7v235.1c0,41.3,18.4,78.3,47.5,103.1.4.3.7.6,1.1.9-29.1-24.9-47.5-61.9-47.5-103.1v-235.1c0-74.9,60.7-135.7,135.7-135.7h235.1c33.1,0,63.5,11.9,87,31.6-.4-.3-.7-.6-1.1-.9-23.6-19.7-53.9-31.6-87-31.6"/>
  <path class="st34" d="M405.3,29.2h-235.1c-74.9,0-135.7,60.7-135.7,135.7v235.1c0,41.3,18.4,78.3,47.5,103.1.4.3.7.6,1.1.9-29.1-24.9-47.5-61.9-47.5-103.1v-235.1c0-74.9,60.7-135.7,135.7-135.7h235.1c33.1,0,63.5,11.9,87,31.6-.4-.3-.7-.6-1.1-.9-23.6-19.7-53.9-31.6-87-31.6"/>
  <path class="st34" d="M406.4,30.2h-235.1c-74.9,0-135.7,60.7-135.7,135.7v235.1c0,41.3,18.4,78.3,47.5,103.1.4.3.7.6,1.1.9-29.1-24.9-47.5-61.9-47.5-103.1v-235.1c0-74.9,60.7-135.7,135.7-135.7h235.1c33.1,0,63.5,11.9,87,31.6-.4-.3-.7-.6-1.1-.9-23.6-19.7-53.9-31.6-87-31.6"/>
  <path class="st34" d="M407.5,31.1h-235.1c-74.9,0-135.7,60.7-135.7,135.7v235.1c0,41.3,18.4,78.3,47.5,103.1.4.3.7.6,1.1.9-29.1-24.9-47.5-61.9-47.5-103.1v-235.1c0-74.9,60.7-135.7,135.7-135.7h235.1c33.1,0,63.5,11.9,87,31.6-.4-.3-.7-.6-1.1-.9-23.6-19.7-53.9-31.6-87-31.6"/>
  <path class="st35" d="M408.6,32h-235.1c-74.9,0-135.7,60.7-135.7,135.7v235.1c0,41.3,18.4,78.3,47.5,103.1.4.3.7.6,1.1.9-29.1-24.9-47.5-61.9-47.5-103.1v-235.1c0-74.9,60.7-135.7,135.7-135.7h235.1c33.1,0,63.5,11.9,87,31.6-.4-.3-.7-.6-1.1-.9-23.6-19.7-53.9-31.6-87-31.6"/>
  <path class="st35" d="M409.7,33h-235.1c-74.9,0-135.7,60.7-135.7,135.7v235.1c0,41.3,18.4,78.3,47.5,103.1.4.3.7.6,1.1.9-29.1-24.9-47.5-61.9-47.5-103.1v-235.1c0-74.9,60.7-135.7,135.7-135.7h235.1c33.1,0,63.5,11.9,87,31.6-.4-.3-.7-.6-1.1-.9-23.6-19.7-53.9-31.6-87-31.6"/>
  <path class="st35" d="M410.8,33.9h-235.1c-74.9,0-135.7,60.7-135.7,135.7v235.1c0,41.3,18.4,78.3,47.5,103.1.4.3.7.6,1.1.9-29.1-24.9-47.5-61.9-47.5-103.1v-235.1c0-74.9,60.7-135.7,135.7-135.7h235.1c33.1,0,63.5,11.9,87,31.6-.4-.3-.7-.6-1.1-.9-23.6-19.7-53.9-31.6-87-31.6"/>
  <path class="st42" d="M412,34.9h-235.1c-74.9,0-135.7,60.7-135.7,135.7v235.1c0,41.3,18.4,78.3,47.5,103.1.4.3.7.6,1.1.9-29.1-24.9-47.5-61.9-47.5-103.1v-235.1c0-74.9,60.7-135.7,135.7-135.7h235.1c33.1,0,63.5,11.9,87,31.6-.4-.3-.7-.6-1.1-.9-23.6-19.7-53.9-31.6-87-31.6"/>
  <path class="st42" d="M413.1,35.8h-235.1c-74.9,0-135.7,60.7-135.7,135.7v235.1c0,41.3,18.4,78.3,47.5,103.1.4.3.7.6,1.1.9-29.1-24.9-47.5-61.9-47.5-103.1v-235.1c0-74.9,60.7-135.7,135.7-135.7h235.1c33.1,0,63.5,11.9,87,31.6-.4-.3-.7-.6-1.1-.9-23.6-19.7-53.9-31.6-87-31.6"/>
  <path class="st42" d="M414.2,36.8h-235.1c-74.9,0-135.7,60.7-135.7,135.7v235.1c0,41.3,18.4,78.3,47.5,103.1.4.3.7.6,1.1.9-29.1-24.9-47.5-61.9-47.5-103.1v-235.1c0-74.9,60.7-135.7,135.7-135.7h235.1c33.1,0,63.5,11.9,87,31.6-.4-.3-.7-.6-1.1-.9-23.6-19.7-53.9-31.6-87-31.6"/>
  <path class="st28" d="M415.3,37.7h-235.1c-74.9,0-135.7,60.7-135.7,135.7v235.1c0,41.3,18.4,78.3,47.5,103.1.4.3.7.6,1.1.9-29.1-24.9-47.5-61.9-47.5-103.1v-235.1c0-74.9,60.7-135.7,135.7-135.7h235.1c33.1,0,63.5,11.9,87,31.6-.4-.3-.7-.6-1.1-.9-23.6-19.7-53.9-31.6-87-31.6"/>
  <path class="st28" d="M416.4,38.6h-235.1c-74.9,0-135.7,60.7-135.7,135.7v235.1c0,41.3,18.4,78.3,47.5,103.1.4.3.7.6,1.1.9-29.1-24.9-47.5-61.9-47.5-103.1v-235.1c0-74.9,60.7-135.7,135.7-135.7h235.1c33.1,0,63.5,11.9,87,31.6-.4-.3-.7-.6-1.1-.9-23.6-19.7-53.9-31.6-87-31.6"/>
  <path class="st28" d="M417.5,39.6h-235.1c-74.9,0-135.7,60.7-135.7,135.7v235.1c0,41.3,18.4,78.3,47.5,103.1.4.3.7.6,1.1.9-29.1-24.9-47.5-61.9-47.5-103.1v-235.1c0-74.9,60.7-135.7,135.7-135.7h235.1c33.1,0,63.5,11.9,87,31.6-.4-.3-.7-.6-1.1-.9-23.6-19.7-53.9-31.6-87-31.6"/>
  <path class="st28" d="M418.6,40.5h-235.1c-74.9,0-135.7,60.7-135.7,135.7v235.1c0,41.3,18.4,78.3,47.5,103.1.4.3.7.6,1.1.9-29.1-24.9-47.5-61.9-47.5-103.1v-235.1c0-74.9,60.7-135.7,135.7-135.7h235.1c33.1,0,63.5,11.9,87,31.6-.4-.3-.7-.6-1.1-.9-23.6-19.7-53.9-31.6-87-31.6"/>
  <path class="st16" d="M419.8,41.5h-235.1c-74.9,0-135.7,60.7-135.7,135.7v235.1c0,41.3,18.4,78.3,47.5,103.1.4.3.7.6,1.1.9-29.1-24.9-47.5-61.9-47.5-103.1v-235.1h0c0-74.9,60.7-135.7,135.7-135.7h235.1c33.1,0,63.5,11.9,87,31.6-.4-.3-.7-.6-1.1-.9-23.6-19.7-53.9-31.6-87-31.6"/>
  <path class="st15" d="M542.4,103.2c29.1,24.9,47.5,61.9,47.5,103.1v235.1c0,74.9-60.7,135.7-135.7,135.7h-235.1c-33.1,0-63.5-11.9-87-31.6.4.3.7.6,1.1.9,23.6,19.7,53.9,31.6,87,31.6h235.1c74.9,0,135.7-60.7,135.7-135.7v-235.1c0-41.3-18.4-78.3-47.5-103.1-.4-.3-.7-.6-1.1-.9"/>
  <path class="st2" d="M541.3,102.3c29.1,24.9,47.5,61.9,47.5,103.1v235.1c0,74.9-60.7,135.7-135.7,135.7h-235.1c-33.1,0-63.5-11.9-87-31.6.4.3.7.6,1.1.9,23.6,19.7,53.9,31.6,87,31.6h235.1c74.9,0,135.7-60.7,135.7-135.7v-235.1c0-41.3-18.4-78.3-47.5-103.1-.4-.3-.7-.6-1.1-.9"/>
  <path class="st2" d="M540.2,101.3c29.1,24.9,47.5,61.9,47.5,103.1v235.1c0,74.9-60.7,135.7-135.7,135.7h-235.1c-33.1,0-63.5-11.9-87-31.6.4.3.7.6,1.1.9,23.6,19.7,53.9,31.6,87,31.6h235.1c74.9,0,135.7-60.7,135.7-135.7v-235.1c0-41.3-18.4-78.3-47.5-103.1-.4-.3-.7-.6-1.1-.9"/>
  <path class="st41" d="M539.1,100.4c29.1,24.9,47.5,61.9,47.5,103.1v235.1c0,74.9-60.7,135.7-135.7,135.7h-235.1c-33.1,0-63.5-11.9-87-31.6.4.3.7.6,1.1.9,23.6,19.7,53.9,31.6,87,31.6h235.1c74.9,0,135.7-60.7,135.7-135.7v-235.1c0-41.3-18.4-78.3-47.5-103.1-.4-.3-.7-.6-1.1-.9"/>
  <path class="st18" d="M538,99.4c29.1,24.9,47.5,61.9,47.5,103.1v235.1c0,74.9-60.7,135.7-135.7,135.7h-235.1c-33.1,0-63.5-11.9-87-31.6.4.3.7.6,1.1.9,23.6,19.7,53.9,31.6,87,31.6h235.1c74.9,0,135.7-60.7,135.7-135.7v-235.1c0-41.3-18.4-78.3-47.5-103.1-.4-.3-.7-.6-1.1-.9"/>
  <path class="st6" d="M536.8,98.5c29.1,24.9,47.5,61.9,47.5,103.1v235.1c0,74.9-60.7,135.7-135.7,135.7h-235.1c-33.1,0-63.5-11.9-87-31.6.4.3.7.6,1.1.9,23.6,19.7,53.9,31.6,87,31.6h235.1c74.9,0,135.7-60.7,135.7-135.7v-235.1c0-41.3-18.4-78.3-47.5-103.1-.4-.3-.7-.6-1.1-.9"/>
  <path class="st6" d="M535.7,97.5c29.1,24.9,47.5,61.9,47.5,103.1v235.1c0,74.9-60.7,135.7-135.7,135.7h-235.1c-33.1,0-63.5-11.9-87-31.6.4.3.7.6,1.1.9,23.6,19.7,53.9,31.6,87,31.6h235.1c74.9,0,135.7-60.7,135.7-135.7v-235.1c0-41.3-18.4-78.3-47.5-103.1-.4-.3-.7-.6-1.1-.9"/>
  <path class="st14" d="M534.6,96.6c29.1,24.9,47.5,61.9,47.5,103.1v235.1c0,74.9-60.7,135.7-135.7,135.7h-235.1c-33.1,0-63.5-11.9-87-31.6.4.3.7.6,1.1.9,23.6,19.7,53.9,31.6,87,31.6h235.1c74.9,0,135.7-60.7,135.7-135.7v-235.1c0-41.3-18.4-78.3-47.5-103.1-.4-.3-.7-.6-1.1-.9"/>
  <path class="st0" d="M533.5,95.7c29.1,24.9,47.5,61.9,47.5,103.1v235.1c0,74.9-60.7,135.7-135.7,135.7h-235.1c-33.1,0-63.5-11.9-87-31.6.4.3.7.6,1.1.9,23.6,19.7,53.9,31.6,87,31.6h235.1c74.9,0,135.7-60.7,135.7-135.7v-235.1c0-41.3-18.4-78.3-47.5-103.1-.4-.3-.7-.6-1.1-1"/>
  <path class="st11" d="M532.4,94.7c29.1,24.9,47.5,61.9,47.5,103.1v235.1c0,74.9-60.7,135.7-135.7,135.7h-235.1c-33.1,0-63.5-11.9-87-31.6.4.3.7.6,1.1.9,23.6,19.7,53.9,31.6,87,31.6h235.1c74.9,0,135.7-60.7,135.7-135.7v-235.1c0-41.3-18.4-78.3-47.5-103.1-.4-.3-.7-.6-1.1-.9"/>
  <path class="st11" d="M531.3,93.8c29.1,24.9,47.5,61.9,47.5,103.1v235.1c0,74.9-60.7,135.7-135.7,135.7h-235.1c-33.1,0-63.5-11.9-87-31.6.4.3.7.6,1.1.9,23.6,19.7,53.9,31.6,87,31.6h235.1c74.9,0,135.7-60.7,135.7-135.7v-235.1c0-41.3-18.4-78.3-47.5-103.1-.4-.3-.7-.6-1.1-.9"/>
  <path class="st10" d="M530.2,92.8c29.1,24.9,47.5,61.9,47.5,103.1v235.1c0,74.9-60.7,135.7-135.7,135.7h-235.1c-33.1,0-63.5-11.9-87-31.6.4.3.7.6,1.1.9,23.6,19.7,53.9,31.6,87,31.6h235.1c74.9,0,135.7-60.7,135.7-135.7v-235.1c0-41.3-18.4-78.3-47.5-103.1-.4-.3-.7-.6-1.1-.9"/>
  <path class="st36" d="M529,91.9c29.1,24.9,47.5,61.9,47.5,103.1v235.1c0,74.9-60.7,135.7-135.7,135.7h-235.1c-33.1,0-63.5-11.9-87-31.6.4.3.7.6,1.1.9,23.6,19.7,53.9,31.6,87,31.6h235.1c74.9,0,135.7-60.7,135.7-135.7v-235.1c0-41.3-18.4-78.3-47.5-103.1-.4-.3-.7-.6-1.1-.9"/>
  <path class="st29" d="M527.9,90.9c29.1,24.9,47.5,61.9,47.5,103.1v235.1c0,74.9-60.7,135.7-135.7,135.7h-235.1c-33.1,0-63.5-11.9-87-31.6.4.3.7.6,1.1.9,23.6,19.7,53.9,31.6,87,31.6h235.1c74.9,0,135.7-60.7,135.7-135.7v-235.1c0-41.3-18.4-78.3-47.5-103.1-.4-.3-.7-.6-1.1-.9"/>
  <path class="st26" d="M526.8,90c29.1,24.9,47.5,61.9,47.5,103.1v235.1c0,74.9-60.7,135.7-135.7,135.7h-235.1c-33.1,0-63.5-11.9-87-31.6.4.3.7.6,1.1.9,23.6,19.7,53.9,31.6,87,31.6h235.1c74.9,0,135.7-60.7,135.7-135.7v-235.1c0-41.3-18.4-78.3-47.5-103.1-.4-.3-.7-.6-1.1-.9"/>
  <path class="st37" d="M525.7,89.1c29.1,24.9,47.5,61.9,47.5,103.1v235.1c0,74.9-60.7,135.7-135.7,135.7h-235.1c-33.1,0-63.5-11.9-87-31.6.4.3.7.6,1.1.9,23.6,19.7,53.9,31.6,87,31.6h235.1c74.9,0,135.7-60.7,135.7-135.7v-235.1c0-41.3-18.4-78.3-47.5-103.1-.4-.3-.7-.6-1.1-.9"/>
  <path class="st23" d="M524.6,88.1c29.1,24.9,47.5,61.9,47.5,103.1v235.1c0,74.9-60.7,135.7-135.7,135.7h-235.1c-33.1,0-63.5-11.9-87-31.6.4.3.7.6,1.1.9,23.6,19.7,53.9,31.6,87,31.6h235.1c74.9,0,135.7-60.7,135.7-135.7v-235.1c0-41.3-18.4-78.3-47.5-103.1-.4-.3-.7-.6-1.1-1"/>
  <path class="st40" d="M523.5,87.2c29.1,24.9,47.5,61.9,47.5,103.1v235.1c0,74.9-60.7,135.7-135.7,135.7h-235.1c-33.1,0-63.5-11.9-87-31.6.4.3.7.6,1.1.9,23.6,19.7,53.9,31.6,87,31.6h235.1c74.9,0,135.7-60.7,135.7-135.7v-235.1c0-41.3-18.4-78.3-47.5-103.1-.4-.3-.7-.6-1.1-.9"/>
  <path class="st25" d="M522.4,86.2c29.1,24.9,47.5,61.9,47.5,103.1v235.1c0,74.9-60.7,135.7-135.7,135.7h-235.1c-33.1,0-63.5-11.9-87-31.6.4.3.7.6,1.1.9,23.6,19.7,53.9,31.6,87,31.6h235.1c74.9,0,135.7-60.7,135.7-135.7v-235.1c0-41.3-18.4-78.3-47.5-103.1-.4-.3-.7-.6-1.1-.9"/>
  <path class="st12" d="M521.2,85.3c29.1,24.9,47.5,61.9,47.5,103.1v235.1c0,74.9-60.7,135.7-135.7,135.7h-235.1c-33.1,0-63.5-11.9-87-31.6.4.3.7.6,1.1.9,23.6,19.7,53.9,31.6,87,31.6h235.1c74.9,0,135.7-60.7,135.7-135.7v-235.1c0-41.3-18.4-78.3-47.5-103.1-.4-.3-.7-.6-1.1-.9"/>
  <path class="st9" d="M520.1,84.3c29.1,24.9,47.5,61.9,47.5,103.1v235.1c0,74.9-60.7,135.7-135.7,135.7h-235.1c-33.1,0-63.5-11.9-87-31.6.4.3.7.6,1.1.9,23.6,19.7,53.9,31.6,87,31.6h235.1c74.9,0,135.7-60.7,135.7-135.7v-235.1c0-41.3-18.4-78.3-47.5-103.1-.4-.3-.7-.6-1.1-.9"/>
  <path class="st17" d="M519,83.4c29.1,24.9,47.5,61.9,47.5,103.1v235.1c0,74.9-60.7,135.7-135.7,135.7h-235.1c-33.1,0-63.5-11.9-87-31.6.4.3.7.6,1.1.9,23.6,19.7,53.9,31.6,87,31.6h235.1c74.9,0,135.7-60.7,135.7-135.7v-235.1c0-41.3-18.4-78.3-47.5-103.1-.4-.3-.7-.6-1.1-.9"/>
  <path class="st17" d="M517.9,82.5c29.1,24.9,47.5,61.9,47.5,103.1v235.1c0,74.9-60.7,135.7-135.7,135.7h-235.1c-33.1,0-63.5-11.9-87-31.6.4.3.7.6,1.1.9,23.6,19.7,53.9,31.6,87,31.6h235.1c74.9,0,135.7-60.7,135.7-135.7v-235.1c0-41.3-18.4-78.3-47.5-103.1-.4-.3-.7-.6-1.1-.9"/>
  <path class="st8" d="M516.8,81.5c29.1,24.9,47.5,61.9,47.5,103.1v235.1c0,74.9-60.7,135.7-135.7,135.7h-235.1c-33.1,0-63.5-11.9-87-31.6.4.3.7.6,1.1.9,23.6,19.7,53.9,31.6,87,31.6h235.1c74.9,0,135.7-60.7,135.7-135.7v-235.1c0-41.3-18.4-78.3-47.5-103.1-.4-.3-.7-.6-1.1-.9"/>
  <path class="st39" d="M515.7,80.6c29.1,24.9,47.5,61.9,47.5,103.1v235.1c0,74.9-60.7,135.7-135.7,135.7h-235.1c-33.1,0-63.5-11.9-87-31.6.4.3.7.6,1.1.9,23.6,19.7,53.9,31.6,87,31.6h235.1c74.9,0,135.7-60.7,135.7-135.7v-235.1c0-41.3-18.4-78.3-47.5-103.1-.4-.3-.7-.6-1.1-.9"/>
  <path class="st3" d="M514.6,79.6c29.1,24.9,47.5,61.9,47.5,103.1v235.1c0,74.9-60.7,135.7-135.7,135.7h-235.1c-33.1,0-63.5-11.9-87-31.6.4.3.7.6,1.1.9,23.6,19.7,53.9,31.6,87,31.6h235.1c74.9,0,135.7-60.7,135.7-135.7v-235.1c0-41.3-18.4-78.3-47.5-103.1-.4-.3-.7-.6-1.1-.9"/>
  <path class="st3" d="M513.4,78.7c29.1,24.9,47.5,61.9,47.5,103.1v235.1c0,74.9-60.7,135.7-135.7,135.7h-235.1c-33.1,0-63.5-11.9-87-31.6.4.3.7.6,1.1.9,23.6,19.7,53.9,31.6,87,31.6h235.1c74.9,0,135.7-60.7,135.7-135.7v-235.1c0-41.3-18.4-78.3-47.5-103.1-.4-.3-.7-.6-1.1-.9"/>
  <path class="st7" d="M512.3,77.8c29.1,24.9,47.5,61.9,47.5,103.1v235.1c0,74.9-60.7,135.7-135.7,135.7h-235.1c-33.1,0-63.5-11.9-87-31.6.4.3.7.6,1.1.9,23.6,19.7,53.9,31.6,87,31.6h235.1c74.9,0,135.7-60.7,135.7-135.7v-235.1c0-41.3-18.4-78.3-47.5-103.1-.4-.3-.7-.6-1.1-.9"/>
  <path class="st13" d="M511.2,76.8c29.1,24.9,47.5,61.9,47.5,103.1v235.1c0,74.9-60.7,135.7-135.7,135.7h-235.1c-33.1,0-63.5-11.9-87-31.6.4.3.7.6,1.1.9,23.6,19.7,53.9,31.6,87,31.6h235.1c74.9,0,135.7-60.7,135.7-135.7v-235.1c0-41.3-18.4-78.3-47.5-103.1-.4-.3-.7-.6-1.1-.9"/>
  <path class="st30" d="M510.1,75.9c29.1,24.9,47.5,61.9,47.5,103.1v235.1c0,74.9-60.7,135.7-135.7,135.7h-235.1c-33.1,0-63.5-11.9-87-31.6.4.3.7.6,1.1.9,23.6,19.7,53.9,31.6,87,31.6h235.1c74.9,0,135.7-60.7,135.7-135.7v-235.1c0-41.3-18.4-78.3-47.5-103.1-.4-.3-.7-.6-1.1-.9"/>
  <path class="st38" d="M509,74.9c29.1,24.9,47.5,61.9,47.5,103.1v235.1h0c0,74.9-60.7,135.7-135.7,135.7h-235.1c-33.1,0-63.5-11.9-87-31.6.4.3.7.6,1.1.9,23.6,19.7,53.9,31.6,87,31.6h235.1c74.9,0,135.7-60.7,135.7-135.7v-235.1c0-41.3-18.4-78.3-47.5-103.1-.4-.3-.7-.6-1.1-.9"/>
  <path class="st1" d="M420.9,42.4h-235.1c-74.9,0-135.7,60.7-135.7,135.7v235.1c0,41.8,18.9,79.2,48.6,104.1,23.6,19.7,53.9,31.6,87,31.6h235.1c74.9,0,135.7-60.7,135.7-135.7v-235.1c0-41.8-18.9-79.2-48.6-104.1-23.6-19.7-53.9-31.6-87-31.6"/>
  <rect class="st20" x="50.1" y="42.4" width="506.4" height="506.4" rx="135.7" ry="135.7"/>
  <polygon class="st21" points="200.3 437.6 200.3 469.8 219 469.8 219 477.1 191.8 477.1 191.8 437.6 200.3 437.6"/>
  <path class="st21" d="M222,449.3c.9-2.5,2.1-4.7,3.7-6.6,1.6-1.9,3.6-3.4,6-4.4,2.4-1.1,5-1.6,7.9-1.6s5.6.5,8,1.6c2.3,1.1,4.3,2.5,5.9,4.4,1.6,1.9,2.9,4.1,3.7,6.6.9,2.5,1.3,5.3,1.3,8.2s-.4,5.6-1.3,8.1c-.9,2.5-2.1,4.7-3.7,6.5-1.6,1.8-3.6,3.3-5.9,4.3-2.3,1.1-5,1.6-8,1.6s-5.6-.5-7.9-1.6c-2.4-1.1-4.3-2.5-6-4.3-1.6-1.8-2.9-4-3.7-6.5-.9-2.5-1.3-5.2-1.3-8.1s.4-5.7,1.3-8.2ZM229.8,462.4c.4,1.6,1,3,1.8,4.2.8,1.3,1.9,2.3,3.2,3,1.3.8,2.9,1.1,4.8,1.1s3.5-.4,4.8-1.1c1.3-.8,2.4-1.8,3.2-3,.8-1.3,1.4-2.7,1.8-4.2.4-1.6.6-3.2.6-4.8s-.2-3.4-.6-5c-.4-1.6-1-3.1-1.8-4.3-.8-1.3-1.9-2.3-3.2-3-1.3-.8-2.9-1.1-4.8-1.1s-3.5.4-4.8,1.1c-1.3.8-2.4,1.8-3.2,3-.8,1.3-1.4,2.7-1.8,4.3-.4,1.6-.6,3.3-.6,5s.2,3.3.6,4.8Z"/>
  <polygon class="st21" points="258.8 437.6 268.3 437.6 277.3 453.2 286.2 437.6 295.7 437.6 281.4 461.9 281.4 477.1 272.9 477.1 272.9 461.7 258.8 437.6"/>
  <path class="st21" d="M312.7,437.6l14.4,39.5h-8.8l-2.9-8.8h-14.4l-3,8.8h-8.5l14.5-39.5h8.7ZM313.2,461.8l-4.8-14.5h-.1l-5,14.5h10Z"/>
  <polygon class="st21" points="337.6 437.6 337.6 469.8 356.3 469.8 356.3 477.1 329.1 477.1 329.1 437.6 337.6 437.6"/>
  <polygon class="st21" points="351.7 444.9 351.7 437.6 383.3 437.6 383.3 444.9 371.7 444.9 371.7 477.1 363.3 477.1 363.3 444.9 351.7 444.9"/>
  <polygon class="st21" points="382.2 437.6 391.7 437.6 400.7 453.2 409.6 437.6 419 437.6 404.7 461.9 404.7 477.1 396.3 477.1 396.3 461.7 382.2 437.6"/>
</svg>