<?xml version="1.0" encoding="UTF-8"?>
<svg xmlns="http://www.w3.org/2000/svg" xmlns:xlink="http://www.w3.org/1999/xlink" version="1.1" viewBox="0 0 874.2 356.3">
  <!-- Generator: Adobe Illustrator 29.3.1, SVG Export Plug-In . SVG Version: 2.1.0 Build 151)  -->
  <defs>
    <style>
      .st0 {
        fill: #585858;
      }

      .st0, .st1, .st2, .st3, .st4, .st5, .st6, .st7, .st8, .st9, .st10, .st11, .st12, .st13, .st14, .st15, .st16, .st17, .st18, .st19, .st20, .st21, .st22, .st23, .st24, .st25, .st26, .st27, .st28 {
        isolation: isolate;
      }

      .st0, .st1, .st18, .st27 {
        opacity: .7;
      }

      .st1 {
        fill: #696969;
      }

      .st29 {
        fill: url(#linear-gradient1);
      }

      .st2 {
        fill: #cbcbcb;
      }

      .st2, .st4, .st12, .st17 {
        opacity: .2;
      }

      .st3 {
        fill: #979797;
      }

      .st3, .st8, .st11, .st21 {
        opacity: .5;
      }

      .st4 {
        fill: #d7d7d7;
      }

      .st5 {
        fill: #a3a3a3;
      }

      .st5, .st7, .st13, .st26 {
        opacity: .4;
      }

      .st30 {
        fill: #eee;
      }

      .st30, .st31, .st32, .st33 {
        fill-opacity: 0;
      }

      .st6 {
        fill: #bfbfbf;
      }

      .st6, .st15, .st20, .st23 {
        opacity: .3;
      }

      .st7 {
        fill: #9d9d9d;
      }

      .st34 {
        fill: url(#linear-gradient);
      }

      .st8 {
        fill: #8c8c8c;
      }

      .st9 {
        fill: #6f6f6f;
      }

      .st9, .st19, .st24, .st28 {
        opacity: .6;
      }

      .st11 {
        fill: #919191;
      }

      .st12 {
        fill: #dcdcdc;
      }

      .st35 {
        mix-blend-mode: multiply;
      }

      .st13 {
        fill: #aeaeae;
      }

      .st14 {
        fill: #4c4c4c;
      }

      .st14, .st22 {
        opacity: .8;
      }

      .st15 {
        fill: #b4b4b4;
      }

      .st31 {
        fill: #f9f9f9;
      }

      .st32 {
        fill: #fff;
      }

      .st16 {
        fill: #e2e2e2;
      }

      .st16, .st25 {
        opacity: .1;
      }

      .st17 {
        fill: #d1d1d1;
      }

      .st18 {
        fill: #636363;
      }

      .st19 {
        fill: #747474;
      }

      .st20 {
        fill: #bababa;
      }

      .st21 {
        fill: #868686;
      }

      .st36 {
        fill: #f2f2f2;
      }

      .st22 {
        fill: #525252;
      }

      .st33 {
        fill: #f3f3f3;
      }

      .st23 {
        fill: #c5c5c5;
      }

      .st24 {
        fill: gray;
      }

      .st25 {
        fill: #e8e8e8;
      }

      .st26 {
        fill: #a8a8a8;
      }

      .st27 {
        fill: #5d5d5d;
      }

      .st28 {
        fill: #7a7a7a;
      }
    </style>
    <linearGradient id="linear-gradient" x1="460.5" y1="295.3" x2="413.3" y2="61.9" gradientTransform="translate(0 358) scale(1 -1)" gradientUnits="userSpaceOnUse">
      <stop offset="0" stop-color="#0cf"/>
      <stop offset="1" stop-color="#09f"/>
    </linearGradient>
    <linearGradient id="linear-gradient1" x1="314" y1="-37.3" x2="564.7" y2="396.9" gradientTransform="translate(0 358) scale(1 -1)" gradientUnits="userSpaceOnUse">
      <stop offset="0" stop-color="#0cf"/>
      <stop offset="1" stop-color="#09f"/>
    </linearGradient>
  </defs>
  <g class="st10">
    <g id="Layer_1">
      <g id="today">
        <g>
          <g>
            <g class="st35">
              <path class="st32" d="M677.6,354.9H128.6C65.2,354.9,0,309.2,0,208S99.4,61.1,176.7,61.1h535c63.4,0,114.6,29.8,114.6,113.1,0,125.4-63.2,180.8-148.8,180.8h0Z"/>
              <path class="st31" d="M676.8,352.6H129.8c-63.2,0-127.5-45.4-127.5-145.6S101.2,61.4,178,61.4h533.7c63.2,0,114.4,30.2,114.4,112.9,0,123.6-63.4,178.4-149.3,178.4h0Z"/>
              <path class="st33" d="M676.1,350.4H131.1c-63.1,0-126.3-45.2-126.3-144.3S103.1,61.7,179.3,61.7h532.4c63.1,0,114.1,30.5,114.1,112.7,0,121.9-63.7,176-149.8,176h0Z"/>
              <path class="st30" d="M675.3,348.1H132.4c-62.9,0-125.2-45-125.2-143S105,62.1,180.6,62.1h531.1c62.9,0,113.9,30.8,113.9,112.5,0,120.2-63.9,173.6-150.2,173.6h0Z"/>
              <path class="st25" d="M674.6,345.8H133.6c-62.8,0-124.1-44.8-124.1-141.7S106.9,62.4,181.9,62.4h529.8c62.8,0,113.6,31.2,113.6,112.3,0,118.4-64.1,171.2-150.7,171.2h0Z"/>
              <path class="st16" d="M673.8,343.6H134.9c-62.7,0-123-44.6-123-140.4S108.7,62.7,183.1,62.7h528.5c62.7,0,113.4,31.5,113.4,112,0,116.7-64.4,168.8-151.2,168.8h0Z"/>
              <path class="st12" d="M673.1,341.3H136.1c-62.5,0-121.9-44.4-121.9-139.1S110.6,63.1,184.4,63.1h527.2c62.5,0,113.1,31.9,113.1,111.8,0,114.9-64.6,166.4-151.7,166.4h.1Z"/>
              <path class="st4" d="M672.3,339.1H137.4c-62.4,0-120.7-44.2-120.7-137.8S112.5,63.4,185.7,63.4h525.9c62.4,0,112.9,32.2,112.9,111.6,0,113.2-64.9,164-152.1,164h-.1Z"/>
              <path class="st17" d="M671.6,336.8H138.7c-62.2,0-119.6-44-119.6-136.5S114.4,63.7,187,63.7h524.6c62.2,0,112.6,32.6,112.6,111.4s-65.1,161.6-152.6,161.6h0Z"/>
              <path class="st2" d="M670.8,334.6H139.9c-62.1,0-118.5-43.8-118.5-135.2S116.2,64.1,188.3,64.1h523.3c62.1,0,112.4,32.9,112.4,111.2s-65.4,159.3-153.1,159.3h-.1Z"/>
              <path class="st23" d="M670.1,332.3H141.2c-62,0-117.4-43.6-117.4-133.9S118.1,64.4,189.5,64.4h522c62,0,112.1,33.3,112.1,111s-65.6,156.9-153.6,156.9h0Z"/>
              <path class="st6" d="M669.3,330H142.4c-61.8,0-116.3-43.4-116.3-132.6S120,64.7,190.8,64.7h520.6c61.8,0,111.9,33.6,111.9,110.8s-65.8,154.5-154,154.5Z"/>
              <path class="st20" d="M668.6,327.8H143.7c-61.7,0-115.1-43.1-115.1-131.3S121.8,65.1,192.1,65.1h519.3c61.7,0,111.6,34,111.6,110.6s-66.1,152.1-154.5,152.1h0Z"/>
              <path class="st15" d="M667.8,325.5H145c-61.5,0-114-42.9-114-130S123.7,65.4,193.4,65.4h518c61.5,0,111.4,34.3,111.4,110.4s-66.3,149.7-155,149.7h0Z"/>
              <path class="st13" d="M667.1,323.3H146.2c-61.4,0-112.9-42.7-112.9-128.8S125.6,65.8,194.7,65.8h516.7c61.4,0,111.1,34.7,111.1,110.2s-66.6,147.3-155.4,147.3Z"/>
              <path class="st26" d="M666.3,321H147.5c-61.3,0-111.8-42.5-111.8-127.5s91.8-127.5,160.2-127.5h515.4c61.3,0,110.9,35,110.9,110s-66.8,144.9-155.9,144.9h0Z"/>
              <path class="st5" d="M665.6,318.7H148.7c-61.1,0-110.7-42.3-110.7-126.2s91.2-126.2,159.1-126.2h514.1c61.1,0,110.6,35.4,110.6,109.8s-67,142.5-156.4,142.5h.2Z"/>
              <path class="st7" d="M664.8,316.5H150c-61,0-109.5-42.1-109.5-124.9s90.7-124.9,158-124.9h512.8c61,0,110.4,35.7,110.4,109.6s-67.3,140.1-156.9,140.1h0Z"/>
              <path class="st3" d="M664.1,314.2H151.3c-60.8,0-108.4-41.9-108.4-123.6s90.2-123.6,156.9-123.6h511.5c60.8,0,110.1,36.1,110.1,109.4s-67.5,137.8-157.3,137.8Z"/>
              <path class="st11" d="M663.3,312H152.5c-60.7,0-107.3-41.7-107.3-122.3s89.7-122.3,155.8-122.3h510.2c60.7,0,109.9,36.4,109.9,109.2s-67.8,135.4-157.8,135.4h0Z"/>
              <path class="st8" d="M662.6,309.7H153.8c-60.6,0-106.2-41.5-106.2-121s89.2-121,154.7-121h508.9c60.6,0,109.6,36.8,109.6,109s-68,133-158.3,133h0Z"/>
              <path class="st21" d="M661.8,307.4H155.1c-60.4,0-105.1-41.3-105.1-119.7s88.7-119.7,153.6-119.7h507.6c60.4,0,109.4,37.1,109.4,108.8s-68.3,130.6-158.8,130.6h0Z"/>
              <path class="st24" d="M661.1,305.2H156.3c-60.3,0-103.9-41-103.9-118.4s88.2-118.4,152.5-118.4h506.3c60.3,0,109.1,37.5,109.1,108.5s-68.5,128.2-159.2,128.2h0Z"/>
              <path class="st28" d="M660.4,302.9H157.6c-60.1,0-102.8-40.8-102.8-117.1s87.7-117.1,151.4-117.1h505c60.1,0,108.9,37.8,108.9,108.3s-68.7,125.8-159.7,125.8h0Z"/>
              <path class="st19" d="M659.6,300.7H158.8c-60,0-101.7-40.6-101.7-115.8s87.2-115.8,150.3-115.8h503.7c60,0,108.6,38.2,108.6,108.1s-69,123.4-160.2,123.4h0Z"/>
              <path class="st9" d="M658.9,298.4H160.1c-59.9,0-100.6-40.4-100.6-114.5s86.7-114.5,149.2-114.5h502.4c59.9,0,108.4,38.5,108.4,107.9s-69.2,121-160.6,121h0Z"/>
              <path class="st1" d="M658.1,296.2H161.4c-59.7,0-99.5-40.2-99.5-113.2s86.2-113.2,148.2-113.2h501c59.7,0,108.1,38.9,108.1,107.7s-69.5,118.6-161.1,118.6h0Z"/>
              <path class="st18" d="M657.4,293.9H162.6c-59.6,0-98.3-40-98.3-111.9s85.7-111.9,147.1-111.9h499.7c59.6,0,107.9,39.2,107.9,107.5s-69.7,116.3-161.6,116.3h0Z"/>
              <path class="st27" d="M656.6,291.6H163.9c-59.4,0-97.2-39.8-97.2-110.6s85.2-110.6,146-110.6h498.4c59.4,0,107.6,39.6,107.6,107.3s-69.9,113.9-162.1,113.9Z"/>
              <path class="st0" d="M655.9,289.4H165.1c-59.3,0-96.1-39.6-96.1-109.3s84.6-109.3,144.9-109.3h497.1c59.3,0,107.4,39.9,107.4,107.1s-70.2,111.5-162.5,111.5Z"/>
              <path class="st22" d="M655.1,287.1H166.4c-59.2,0-95-39.4-95-108s84.1-108,143.8-108h495.8c59.2,0,107.1,40.3,107.1,106.9s-70.4,109.1-163,109.1Z"/>
              <path class="st14" d="M654.4,284.9H167.7c-59,0-93.9-39.2-93.9-106.7s83.6-106.7,142.7-106.7h494.5c59,0,106.9,40.6,106.9,106.7s-70.7,106.7-163.5,106.7Z"/>
            </g>
            <g>
              <path class="st34" d="M830.7,178.2c0,65.8-49.8,119.1-111.1,119.1H154.7c-61.4,0-111.1-53.3-111.1-119.1h0c0-65.8,51-119.1,112.4-119.1h563.7c61.4,0,111.1,53.3,111.1,119.1h0Z"/>
              <path class="st29" d="M826.5,178.2c0,62.2-48.9,112.6-109.3,112.6H161.5c-60.4,0-109.3-50.4-109.3-112.6h0c0-62.2,48.9-112.6,109.3-112.6h555.7c60.4,0,109.3,50.4,109.3,112.6h0Z"/>
            </g>
          </g>
          <g>
            <path class="st36" d="M360.5,156.6v17.6h18.1v-17.6h9.8v46h-9.8v-19.8h-18.1v19.8h-9.8v-46h9.8Z"/>
            <path class="st36" d="M428.4,199.1c-3.4,3-8.1,4.5-14,4.5s-10.7-1.5-14.1-4.5c-3.3-3-5-7.6-5-13.9v-28.6h9.8v28.6c0,1.2.1,2.5.3,3.7.2,1.2.6,2.3,1.3,3.2.7.9,1.6,1.7,2.8,2.3,1.2.6,2.8.9,4.8.9,3.5,0,5.9-.8,7.3-2.4,1.3-1.6,2-4.1,2-7.6v-28.6h9.8v28.6c0,6.2-1.7,10.8-5.1,13.9h.1Z"/>
            <path class="st36" d="M461.4,156.6c2.1,0,4.1.2,5.8.6s3.3,1,4.5,1.9c1.3.9,2.2,2.1,2.9,3.5.7,1.5,1,3.3,1,5.4s-.5,4.2-1.5,5.8c-1,1.5-2.5,2.8-4.5,3.8,2.8.8,4.8,2.2,6.2,4.3,1.4,2,2,4.5,2,7.4s-.4,4.3-1.3,6-2.1,3.1-3.5,4.2c-1.5,1.1-3.2,1.9-5.1,2.4s-3.9.8-5.9.8h-21.7v-46h21.1ZM460.2,175.2c1.8,0,3.2-.4,4.3-1.3,1.1-.9,1.7-2.3,1.7-4.2s-.2-2-.6-2.6c-.4-.7-.9-1.2-1.5-1.6-.6-.4-1.3-.7-2.2-.8-.8-.1-1.7-.2-2.5-.2h-9.2v10.8h10ZM460.8,194.7c1,0,1.9,0,2.8-.3.9-.2,1.6-.5,2.3-1s1.2-1.1,1.6-1.8c.4-.8.6-1.8.6-3,0-2.4-.6-4-1.9-5.1-1.3-1-3-1.5-5.1-1.5h-10.7v12.6h10.5,0Z"/>
          </g>
        </g>
      </g>
    </g>
  </g>
</svg>