<?xml version="1.0" encoding="UTF-8"?>
<svg xmlns="http://www.w3.org/2000/svg" version="1.1" viewBox="0 0 600 600">
  <!-- Generator: Adobe Illustrator 29.3.1, SVG Export Plug-In . SVG Version: 2.1.0 Build 151)  -->
  <defs>
    <style>
      .st0 {
        fill: #f1f1f1;
      }

      .st1 {
        fill: #eaf0f6;
      }

      .st2 {
        fill: #f3f6fa;
      }

      .st3 {
        fill: #fdfdfe;
      }

      .st4 {
        fill: #d9e3ef;
      }

      .st5 {
        fill: #eff3f8;
      }

      .st6 {
        fill: #f2f6fa;
      }

      .st7 {
        fill: #dde6f1;
      }

      .st8 {
        fill: #f6f6f6;
      }

      .st9 {
        fill: #f4f4f4;
      }

      .st10 {
        fill: #ecf1f7;
      }

      .st11 {
        fill: #dce5f0;
      }

      .st12 {
        fill: #dfe7f2;
      }

      .st13 {
        fill: #e1e9f2;
      }

      .st14 {
        fill: #f8fafc;
      }

      .st15 {
        fill: #e8eef5;
      }

      .st16 {
        fill: #e9eff6;
      }

      .st17 {
        fill: #fefeff;
      }

      .st18 {
        isolation: isolate;
      }

      .st19 {
        fill: #e2eaf3;
      }

      .st20 {
        fill: #dbe5f0;
      }

      .st21 {
        mix-blend-mode: multiply;
      }

      .st22 {
        fill: #ebf0f7;
      }

      .st23 {
        fill: #f0f4f9;
      }

      .st24 {
        fill: #fcfdfe;
      }

      .st25 {
        fill: #fff;
      }

      .st26 {
        fill: #e0e8f2;
      }

      .st27 {
        fill: #edf2f7;
      }

      .st28 {
        fill: #f9f9f9;
      }

      .st29 {
        fill: #f0f0f0;
      }

      .st30 {
        fill: #818f99;
      }

      .st31 {
        fill: #f9fbfc;
      }

      .st32 {
        fill: #fafafa;
      }

      .st33 {
        mix-blend-mode: lighten;
      }

      .st34 {
        fill: #e4ebf4;
      }

      .st35 {
        fill: #f1f5f9;
      }

      .st36 {
        fill: #f8f8f8;
      }

      .st37 {
        fill: #e3eaf3;
      }

      .st38 {
        fill: #e6ecf4;
      }

      .st39 {
        fill: #f7f7f7;
      }

      .st40 {
        fill: #fefefe;
      }

      .st41 {
        fill: #e6edf5;
      }

      .st42 {
        fill: #dae4f0;
      }

      .st43 {
        fill: #f2f2f2;
      }

      .st44 {
        fill: #f5f5f5;
      }

      .st45 {
        fill: #f3f3f3;
      }

      .st46 {
        fill: #fbfcfd;
      }

      .st47 {
        fill: #fbfbfb;
      }

      .st48 {
        fill: #fcfcfc;
      }

      .st49 {
        fill: #e7edf5;
      }

      .st50 {
        fill: #fafbfd;
      }

      .st51 {
        fill: #e5ecf4;
      }

      .st52 {
        fill: #dae4ef;
      }

      .st53 {
        fill: #f4f7fa;
      }

      .st54 {
        fill: #f6f8fb;
      }

      .st55 {
        fill: #f2f5f9;
      }

      .st56 {
        fill: #dee7f1;
      }

      .st57 {
        fill: #e3ebf3;
      }

      .st58 {
        fill: #eef2f8;
      }

      .st59 {
        fill: #f5f8fb;
      }

      .st60 {
        fill: #f5f7fb;
      }

      .st61 {
        fill: #f7f9fc;
      }

      .st62 {
        fill: #fdfdfd;
      }
    </style>
  </defs>
  <g class="st18">
    <g id="icon">
      <g class="st33">
        <rect class="st29" x="8.3" y="16.6" width="476.4" height="476.4" rx="127.6" ry="127.6"/>
        <rect class="st29" x="9.4" y="17.4" width="476.4" height="476.4" rx="127.6" ry="127.6"/>
        <rect class="st0" x="10.4" y="18.3" width="476.4" height="476.4" rx="127.6" ry="127.6"/>
        <rect class="st0" x="11.5" y="19.2" width="476.4" height="476.4" rx="127.6" ry="127.6"/>
        <rect class="st0" x="12.5" y="20.1" width="476.4" height="476.4" rx="127.6" ry="127.6"/>
        <rect class="st0" x="13.6" y="21" width="476.4" height="476.4" rx="127.6" ry="127.6"/>
        <rect class="st43" x="14.6" y="21.9" width="476.4" height="476.4" rx="127.6" ry="127.6"/>
        <rect class="st43" x="15.7" y="22.8" width="476.4" height="476.4" rx="127.6" ry="127.6"/>
        <rect class="st43" x="16.7" y="23.7" width="476.4" height="476.4" rx="127.6" ry="127.6"/>
        <rect class="st45" x="17.8" y="24.5" width="476.4" height="476.4" rx="127.6" ry="127.6"/>
        <rect class="st45" x="18.8" y="25.4" width="476.4" height="476.4" rx="127.6" ry="127.6"/>
        <rect class="st45" x="19.9" y="26.3" width="476.4" height="476.4" rx="127.6" ry="127.6"/>
        <rect class="st9" x="20.9" y="27.2" width="476.4" height="476.4" rx="127.6" ry="127.6"/>
        <rect class="st9" x="22" y="28.1" width="476.4" height="476.4" rx="127.6" ry="127.6"/>
        <rect class="st9" x="23" y="29" width="476.4" height="476.4" rx="127.6" ry="127.6"/>
        <rect class="st9" x="24.1" y="29.9" width="476.4" height="476.4" rx="127.6" ry="127.6"/>
        <rect class="st44" x="25.1" y="30.7" width="476.4" height="476.4" rx="127.6" ry="127.6"/>
        <rect class="st44" x="26.1" y="31.6" width="476.4" height="476.4" rx="127.6" ry="127.6"/>
        <rect class="st44" x="27.2" y="32.5" width="476.4" height="476.4" rx="127.6" ry="127.6"/>
        <rect class="st8" x="28.2" y="33.4" width="476.4" height="476.4" rx="127.6" ry="127.6"/>
        <rect class="st8" x="29.3" y="34.3" width="476.4" height="476.4" rx="127.6" ry="127.6"/>
        <rect class="st8" x="30.3" y="35.2" width="476.4" height="476.4" rx="127.6" ry="127.6"/>
        <rect class="st8" x="31.4" y="36.1" width="476.4" height="476.4" rx="127.6" ry="127.6"/>
        <rect class="st39" x="32.4" y="37" width="476.4" height="476.4" rx="127.6" ry="127.6"/>
        <rect class="st39" x="33.5" y="37.8" width="476.4" height="476.4" rx="127.6" ry="127.6"/>
        <rect class="st39" x="34.5" y="38.7" width="476.4" height="476.4" rx="127.6" ry="127.6"/>
        <rect class="st36" x="35.6" y="39.6" width="476.4" height="476.4" rx="127.6" ry="127.6"/>
        <rect class="st36" x="36.6" y="40.5" width="476.4" height="476.4" rx="127.6" ry="127.6"/>
        <rect class="st36" x="37.7" y="41.4" width="476.4" height="476.4" rx="127.6" ry="127.6"/>
        <rect class="st28" x="38.7" y="42.3" width="476.4" height="476.4" rx="127.6" ry="127.6"/>
        <rect class="st28" x="39.8" y="43.2" width="476.4" height="476.4" rx="127.6" ry="127.6"/>
        <rect class="st28" x="40.8" y="44" width="476.4" height="476.4" rx="127.6" ry="127.6"/>
        <rect class="st28" x="41.9" y="44.9" width="476.4" height="476.4" rx="127.6" ry="127.6"/>
        <rect class="st32" x="42.9" y="45.8" width="476.4" height="476.4" rx="127.6" ry="127.6"/>
        <rect class="st32" x="44" y="46.7" width="476.4" height="476.4" rx="127.6" ry="127.6"/>
        <rect class="st32" x="45" y="47.6" width="476.4" height="476.4" rx="127.6" ry="127.6"/>
        <rect class="st47" x="46.1" y="48.5" width="476.4" height="476.4" rx="127.6" ry="127.6"/>
        <rect class="st47" x="47.1" y="49.4" width="476.4" height="476.4" rx="127.6" ry="127.6"/>
        <rect class="st47" x="48.2" y="50.3" width="476.4" height="476.4" rx="127.6" ry="127.6"/>
        <rect class="st47" x="49.2" y="51.1" width="476.4" height="476.4" rx="127.6" ry="127.6"/>
        <rect class="st48" x="50.3" y="52" width="476.4" height="476.4" rx="127.6" ry="127.6"/>
        <rect class="st48" x="51.3" y="52.9" width="476.4" height="476.4" rx="127.6" ry="127.6"/>
        <rect class="st48" x="52.3" y="53.8" width="476.4" height="476.4" rx="127.6" ry="127.6"/>
        <rect class="st62" x="53.4" y="54.7" width="476.4" height="476.4" rx="127.6" ry="127.6"/>
        <rect class="st62" x="54.4" y="55.6" width="476.4" height="476.4" rx="127.6" ry="127.6"/>
        <rect class="st62" x="55.5" y="56.5" width="476.4" height="476.4" rx="127.6" ry="127.6"/>
        <rect class="st40" x="56.5" y="57.3" width="476.4" height="476.4" rx="127.6" ry="127.6"/>
        <rect class="st40" x="57.6" y="58.2" width="476.4" height="476.4" rx="127.6" ry="127.6"/>
        <rect class="st40" x="58.6" y="59.1" width="476.4" height="476.4" rx="127.6" ry="127.6"/>
        <rect class="st40" x="59.7" y="60" width="476.4" height="476.4" rx="127.6" ry="127.6"/>
        <rect class="st25" x="60.7" y="60.9" width="476.4" height="476.4" rx="127.6" ry="127.6"/>
        <rect class="st25" x="61.8" y="61.8" width="476.4" height="476.4" rx="127.6" ry="127.6"/>
      </g>
      <g class="st21">
        <rect class="st25" x="115.2" y="107" width="476.4" height="476.4" rx="127.6" ry="127.6"/>
        <rect class="st17" x="114.2" y="106.1" width="476.4" height="476.4" rx="127.6" ry="127.6"/>
        <rect class="st40" x="113.1" y="105.2" width="476.4" height="476.4" rx="127.6" ry="127.6"/>
        <rect class="st3" x="112.1" y="104.3" width="476.4" height="476.4" rx="127.6" ry="127.6"/>
        <rect class="st24" x="111" y="103.4" width="476.4" height="476.4" rx="127.6" ry="127.6"/>
        <rect class="st46" x="110" y="102.6" width="476.4" height="476.4" rx="127.6" ry="127.6"/>
        <rect class="st46" x="108.9" y="101.7" width="476.4" height="476.4" rx="127.6" ry="127.6"/>
        <rect class="st50" x="107.9" y="100.8" width="476.4" height="476.4" rx="127.6" ry="127.6"/>
        <rect class="st31" x="106.8" y="99.9" width="476.4" height="476.4" rx="127.6" ry="127.6"/>
        <rect class="st14" x="105.8" y="99" width="476.4" height="476.4" rx="127.6" ry="127.6"/>
        <rect class="st14" x="104.7" y="98.1" width="476.4" height="476.4" rx="127.6" ry="127.6"/>
        <rect class="st61" x="103.7" y="97.2" width="476.4" height="476.4" rx="127.6" ry="127.6"/>
        <rect class="st54" x="102.6" y="96.4" width="476.4" height="476.4" rx="127.6" ry="127.6"/>
        <rect class="st59" x="101.6" y="95.5" width="476.4" height="476.4" rx="127.6" ry="127.6"/>
        <rect class="st60" x="100.6" y="94.6" width="476.4" height="476.4" rx="127.6" ry="127.6"/>
        <rect class="st53" x="99.5" y="93.7" width="476.4" height="476.4" rx="127.6" ry="127.6"/>
        <rect class="st2" x="98.5" y="92.8" width="476.4" height="476.4" rx="127.6" ry="127.6"/>
        <rect class="st6" x="97.4" y="91.9" width="476.4" height="476.4" rx="127.6" ry="127.6"/>
        <rect class="st55" x="96.4" y="91" width="476.4" height="476.4" rx="127.6" ry="127.6"/>
        <rect class="st35" x="95.3" y="90.1" width="476.4" height="476.4" rx="127.6" ry="127.6"/>
        <rect class="st23" x="94.3" y="89.3" width="476.4" height="476.4" rx="127.6" ry="127.6"/>
        <rect class="st5" x="93.2" y="88.4" width="476.4" height="476.4" rx="127.6" ry="127.6"/>
        <rect class="st5" x="92.2" y="87.5" width="476.4" height="476.4" rx="127.6" ry="127.6"/>
        <rect class="st58" x="91.1" y="86.6" width="476.4" height="476.4" rx="127.6" ry="127.6"/>
        <rect class="st27" x="90.1" y="85.7" width="476.4" height="476.4" rx="127.6" ry="127.6"/>
        <rect class="st10" x="89" y="84.8" width="476.4" height="476.4" rx="127.6" ry="127.6"/>
        <rect class="st10" x="88" y="83.9" width="476.4" height="476.4" rx="127.6" ry="127.6"/>
        <rect class="st22" x="86.9" y="83.1" width="476.4" height="476.4" rx="127.6" ry="127.6"/>
        <rect class="st1" x="85.9" y="82.2" width="476.4" height="476.4" rx="127.6" ry="127.6"/>
        <rect class="st16" x="84.8" y="81.3" width="476.4" height="476.4" rx="127.6" ry="127.6"/>
        <rect class="st16" x="83.8" y="80.4" width="476.4" height="476.4" rx="127.6" ry="127.6"/>
        <rect class="st15" x="82.7" y="79.5" width="476.4" height="476.4" rx="127.6" ry="127.6"/>
        <rect class="st49" x="81.7" y="78.6" width="476.4" height="476.4" rx="127.6" ry="127.6"/>
        <rect class="st41" x="80.6" y="77.7" width="476.4" height="476.4" rx="127.6" ry="127.6"/>
        <rect class="st38" x="79.6" y="76.9" width="476.4" height="476.4" rx="127.6" ry="127.6"/>
        <rect class="st51" x="78.5" y="76" width="476.4" height="476.4" rx="127.6" ry="127.6"/>
        <rect class="st34" x="77.5" y="75.1" width="476.4" height="476.4" rx="127.6" ry="127.6"/>
        <rect class="st57" x="76.4" y="74.2" width="476.4" height="476.4" rx="127.6" ry="127.6"/>
        <rect class="st37" x="75.4" y="73.3" width="476.4" height="476.4" rx="127.6" ry="127.6"/>
        <rect class="st19" x="74.4" y="72.4" width="476.4" height="476.4" rx="127.6" ry="127.6"/>
        <rect class="st13" x="73.3" y="71.5" width="476.4" height="476.4" rx="127.6" ry="127.6"/>
        <rect class="st26" x="72.3" y="70.6" width="476.4" height="476.4" rx="127.6" ry="127.6"/>
        <rect class="st26" x="71.2" y="69.8" width="476.4" height="476.4" rx="127.6" ry="127.6"/>
        <rect class="st12" x="70.2" y="68.9" width="476.4" height="476.4" rx="127.6" ry="127.6"/>
        <rect class="st56" x="69.1" y="68" width="476.4" height="476.4" rx="127.6" ry="127.6"/>
        <rect class="st7" x="68.1" y="67.1" width="476.4" height="476.4" rx="127.6" ry="127.6"/>
        <rect class="st7" x="67" y="66.2" width="476.4" height="476.4" rx="127.6" ry="127.6"/>
        <rect class="st11" x="66" y="65.3" width="476.4" height="476.4" rx="127.6" ry="127.6"/>
        <rect class="st20" x="64.9" y="64.4" width="476.4" height="476.4" rx="127.6" ry="127.6"/>
        <rect class="st42" x="63.9" y="63.6" width="476.4" height="476.4" rx="127.6" ry="127.6"/>
        <rect class="st52" x="62.8" y="62.7" width="476.4" height="476.4" rx="127.6" ry="127.6"/>
        <rect class="st4" x="61.8" y="61.8" width="476.4" height="476.4" rx="127.6" ry="127.6"/>
      </g>
      <rect class="st29" x="61.8" y="61.8" width="476.4" height="476.4" rx="127.6" ry="127.6"/>
    </g>
    <g id="today">
      <g>
        <path class="st30" d="M216.8,440.5v-6.9h29.6v6.9h-10.8v30.3h-8v-30.3h-10.8Z"/>
        <path class="st30" d="M249,444.6c.8-2.4,2-4.5,3.5-6.2,1.5-1.8,3.4-3.2,5.6-4.2,2.2-1,4.7-1.5,7.5-1.5s5.3.5,7.5,1.5c2.2,1,4.1,2.4,5.6,4.2,1.5,1.8,2.7,3.8,3.5,6.2.8,2.4,1.2,5,1.2,7.7s-.4,5.2-1.2,7.6c-.8,2.3-2,4.4-3.5,6.1-1.5,1.7-3.4,3.1-5.6,4.1-2.2,1-4.7,1.5-7.5,1.5s-5.3-.5-7.5-1.5c-2.2-1-4.1-2.4-5.6-4.1-1.5-1.7-2.7-3.8-3.5-6.1-.8-2.3-1.2-4.9-1.2-7.6s.4-5.4,1.2-7.7ZM256.3,456.9c.4,1.5.9,2.8,1.7,4,.8,1.2,1.8,2.1,3,2.8,1.2.7,2.8,1.1,4.6,1.1s3.3-.4,4.6-1.1c1.2-.7,2.3-1.7,3-2.8.8-1.2,1.3-2.5,1.7-4,.4-1.5.5-3,.5-4.6s-.2-3.2-.5-4.7c-.4-1.5-.9-2.9-1.7-4.1-.8-1.2-1.8-2.2-3-2.9-1.3-.7-2.8-1.1-4.6-1.1s-3.3.4-4.6,1.1c-1.2.7-2.3,1.7-3,2.9-.8,1.2-1.3,2.6-1.7,4.1-.4,1.5-.5,3.1-.5,4.7s.2,3.1.5,4.6Z"/>
        <path class="st30" d="M303.1,433.6c2.3,0,4.5.4,6.5,1.1s3.8,1.9,5.2,3.4c1.5,1.5,2.6,3.4,3.4,5.7.8,2.3,1.2,5,1.2,8.1s-.3,5.2-1,7.5c-.7,2.3-1.7,4.3-3.1,5.9-1.4,1.7-3.1,3-5.1,3.9-2,1-4.5,1.4-7.2,1.4h-15.6v-37.2h15.6ZM302.6,463.9c1.1,0,2.3-.2,3.3-.6,1.1-.4,2-1,2.9-1.9.8-.9,1.5-2,2-3.5.5-1.4.8-3.2.8-5.2s-.2-3.6-.5-5.1c-.4-1.5-.9-2.8-1.7-3.9s-1.9-1.9-3.2-2.5c-1.3-.6-3-.9-4.9-.9h-5.7v23.4h7.1Z"/>
        <path class="st30" d="M341.9,433.6l13.5,37.2h-8.3l-2.7-8.3h-13.5l-2.8,8.3h-8l13.7-37.2h8.2ZM342.3,456.4l-4.6-13.6h-.1l-4.7,13.6h9.4Z"/>
        <path class="st30" d="M349.6,433.6h8.9l8.5,14.7,8.4-14.7h8.9l-13.4,22.9v14.3h-8v-14.5l-13.3-22.7Z"/>
      </g>
    </g>
  </g>
</svg>